<svg width="224" height="74" viewBox="0 0 224 74" fill="none" xmlns="http://www.w3.org/2000/svg">
<path d="M121.939 34.4143C119.522 34.4143 117.471 33.9601 115.786 33.0515C114.12 32.1429 112.851 30.871 111.978 29.2356C111.105 27.6002 110.668 25.6821 110.668 23.4814C110.668 21.2201 111.115 19.2616 112.008 17.606C112.922 15.9504 114.232 14.6684 115.938 13.7598C117.644 12.8513 119.695 12.397 122.091 12.397C123.594 12.397 125.016 12.609 126.356 13.033C127.717 13.457 128.823 14.0223 129.676 14.7289L128.153 18.3934C127.219 17.707 126.265 17.2224 125.29 16.9398C124.315 16.6369 123.259 16.4855 122.122 16.4855C119.949 16.4855 118.314 17.0912 117.217 18.3026C116.141 19.4938 115.603 21.2201 115.603 23.4814C115.603 25.7629 116.151 27.4891 117.248 28.6601C118.365 29.8312 120.01 30.4167 122.183 30.4167C123.34 30.4167 124.559 30.235 125.838 29.8715V25.6922H121.208V22.3002H129.737V32.7789C128.681 33.3039 127.463 33.7077 126.082 33.9903C124.701 34.273 123.32 34.4143 121.939 34.4143Z" fill="#EAEAEA"/>
<path d="M136.963 34.0812V12.7301H146.771C149.168 12.7301 151.016 13.3055 152.316 14.4564C153.615 15.6072 154.265 17.2123 154.265 19.2717C154.265 20.8667 153.849 22.1993 153.016 23.2694C152.204 24.3193 151.036 25.036 149.513 25.4196C150.589 25.7427 151.473 26.52 152.163 27.7516L155.636 34.0812H150.427L146.711 27.267C146.406 26.7219 146.03 26.3484 145.583 26.1465C145.137 25.9244 144.609 25.8133 143.999 25.8133H141.684V34.0812H136.963ZM141.684 22.4214H145.918C148.457 22.4214 149.726 21.4119 149.726 19.3929C149.726 17.394 148.457 16.3946 145.918 16.3946H141.684V22.4214Z" fill="#EAEAEA"/>
<path d="M161.219 34.0812V12.7301H175.933V16.3946H165.728V21.3917H175.262V25.0865H165.728V30.4167H175.933V34.0812H161.219Z" fill="#EAEAEA"/>
<path d="M182.709 34.0812V12.7301H197.423V16.3946H187.218V21.3917H196.753V25.0865H187.218V30.4167H197.423V34.0812H182.709Z" fill="#EAEAEA"/>
<path d="M204.2 34.0812V12.7301H208.921V22.0277H208.982L217.908 12.7301H223.574L213.582 22.9362L224 34.0812H218.273L208.982 24.3294H208.921V34.0812H204.2Z" fill="#EAEAEA"/>
<path d="M111.62 61.3545V45.5195H115.09V52.415H115.135L121.694 45.5195H125.859L118.515 53.0889L126.172 61.3545H121.963L115.135 54.1221H115.09V61.3545H111.62Z" fill="#EAEAEA"/>
<path d="M129.229 61.3545V45.5195H140.042V48.2373H132.542V51.9434H139.55V54.6836H132.542V58.6367H140.042V61.3545H129.229Z" fill="#EAEAEA"/>
<path d="M145.023 61.3545V45.5195H155.836V48.2373H148.336V51.9434H155.344V54.6836H148.336V58.6367H155.836V61.3545H145.023Z" fill="#EAEAEA"/>
<path d="M160.817 61.3545V45.5195H168.026C169.787 45.5195 171.146 45.9688 172.101 46.8672C173.056 47.7507 173.534 48.986 173.534 50.5733C173.534 52.1605 173.056 53.4033 172.101 54.3018C171.146 55.2002 169.787 55.6494 168.026 55.6494H164.287V61.3545H160.817ZM164.287 52.9541H167.444C169.28 52.9541 170.198 52.1605 170.198 50.5733C170.198 49.016 169.28 48.2373 167.444 48.2373H164.287V52.9541Z" fill="#EAEAEA"/>
<path d="M177.923 61.3545V45.5195H188.737V48.2373H181.237V51.9434H188.244V54.6836H181.237V58.6367H188.737V61.3545H177.923Z" fill="#EAEAEA"/>
<path d="M193.717 61.3545V45.5195H200.926C202.688 45.5195 204.046 45.9463 205.001 46.7998C205.956 47.6533 206.434 48.8438 206.434 50.3711C206.434 51.554 206.128 52.5423 205.516 53.3359C204.919 54.1146 204.061 54.6462 202.941 54.9307C203.732 55.1703 204.382 55.7468 204.889 56.6602L207.441 61.3545H203.613L200.882 56.3008C200.658 55.8965 200.382 55.6195 200.053 55.4697C199.725 55.305 199.337 55.2227 198.889 55.2227H197.188V61.3545H193.717ZM197.188 52.707H200.3C202.165 52.707 203.098 51.9583 203.098 50.4609C203.098 48.9785 202.165 48.2373 200.3 48.2373H197.188V52.707Z" fill="#EAEAEA"/>
<path d="M217.121 61.6016C215.882 61.6016 214.711 61.4444 213.606 61.1299C212.517 60.8155 211.606 60.3887 210.875 59.8496L211.882 57.1094C212.584 57.6035 213.382 57.9929 214.278 58.2774C215.188 58.5619 216.136 58.7041 217.121 58.7041C218.196 58.7041 218.965 58.5394 219.427 58.21C219.905 57.8656 220.144 57.4388 220.144 56.9297C220.144 56.4955 219.98 56.1511 219.651 55.8965C219.323 55.6419 218.748 55.4248 217.927 55.2451L215.397 54.7061C212.576 54.1071 211.166 52.6397 211.166 50.3037C211.166 49.3005 211.435 48.4245 211.972 47.6758C212.509 46.9121 213.256 46.3206 214.211 45.9014C215.181 45.4821 216.3 45.2725 217.569 45.2725C218.659 45.2725 219.681 45.4297 220.636 45.7441C221.591 46.0586 222.383 46.5003 223.009 47.0693L222.002 49.6299C220.778 48.6566 219.293 48.1699 217.547 48.1699C216.606 48.1699 215.875 48.3571 215.353 48.7314C214.845 49.0908 214.591 49.5625 214.591 50.1465C214.591 50.5807 214.748 50.9326 215.062 51.2022C215.375 51.4717 215.92 51.6888 216.696 51.8535L219.226 52.3926C222.121 53.0215 223.569 54.444 223.569 56.6602C223.569 57.6485 223.3 58.5169 222.763 59.2656C222.241 59.9994 221.494 60.5759 220.524 60.9951C219.569 61.3994 218.435 61.6016 217.121 61.6016Z" fill="#EAEAEA"/>
<path d="M76.8572 23.738C81.6789 23.4821 84.8137 22.5051 88.5009 20.4754C93.3489 17.8077 95.4063 9.43631 95.4063 9.43631C83.5017 17.4502 67.2261 19.1454 67.2261 19.1454C62.3766 26.9327 57.9084 31.4914 54.1702 34.136C53.5552 33.778 53.0031 33.322 52.5357 32.7859C51.3781 31.2571 51.2438 29.7037 51.2808 29.4401C51.3179 29.1766 51.5895 28.7497 52.2069 28.5617C52.4164 28.4873 52.6407 28.4639 52.861 28.4934C53.0814 28.5229 53.2916 28.6044 53.4741 28.7312C53.2935 27.6524 53.1932 27.1362 52.5604 26.6014C51.9723 26.1067 50.9027 26.0312 50.9027 26.0312C50.3654 25.5971 49.7207 25.316 49.0367 25.2175C47.2401 24.9663 46.0532 25.7399 45.2105 26.5259C44.0853 27.5754 43.9973 29.5311 43.187 31.7765C42.8233 32.7679 42.1151 33.5959 41.1914 34.1098C37.4624 31.459 33.0111 26.905 28.1786 19.1485C28.1786 19.1485 11.903 17.4533 0 9.4394C0 9.4394 2.05586 17.8108 6.90381 20.4785C10.5926 22.5082 13.7274 23.4852 18.5475 23.7411C18.5475 23.7411 12.0481 24.2974 4.57939 20.7035C4.57939 20.7035 8.77755 27.3103 12.7288 29.4679C16.68 31.6255 21.6144 32.4777 25.1257 32.3036C25.1257 32.3036 19.0183 33.7723 13.9435 31.6255C13.9435 31.6255 19.2745 38.6345 28.8253 38.4064C28.8253 38.4064 25.7276 39.1878 22.8399 38.6715C22.8399 38.6715 27.234 42.3902 30.8657 43.0021C30.8657 43.0021 32.332 43.2933 35.3633 42.9651C34.4291 43.5441 33.3558 43.8609 32.2564 43.882C32.2564 43.882 35.3587 45.7314 37.6677 45.9333C38.2798 45.9738 38.8945 45.949 39.5013 45.8593C39.0547 46.13 38.5609 46.3141 38.0458 46.4018C38.0458 46.4018 41.125 47.4975 43.1392 46.542C40.9027 53.3122 39.2543 55.3419 39.2543 55.3419L39.847 56.0477C39.9083 56.1218 39.986 56.1807 40.074 56.2195C40.1621 56.2583 40.258 56.276 40.3541 56.2712C40.4502 56.2664 40.5439 56.2392 40.6276 56.1919C40.7114 56.1445 40.7828 56.0782 40.8364 55.9984L42.1637 54.1799L40.6095 56.9955L41.2624 57.6474C41.33 57.7159 41.4127 57.7677 41.5039 57.7986C41.5951 57.8295 41.6923 57.8386 41.7877 57.8253C41.8831 57.8119 41.9741 57.7765 42.0533 57.7218C42.1325 57.6671 42.1978 57.5946 42.244 57.5102L43.113 56.0662L41.9585 58.7092L42.6715 59.2964C42.7455 59.3583 42.8329 59.402 42.9267 59.424C43.0206 59.4461 43.1184 59.4458 43.2122 59.4234C43.3059 59.4009 43.3931 59.3568 43.4668 59.2946C43.5404 59.2324 43.5984 59.1539 43.6362 59.0652L44.1702 57.9479L43.5142 60.0593L44.286 60.5632C44.3661 60.6151 44.4572 60.6477 44.552 60.6585C44.6469 60.6693 44.743 60.658 44.8328 60.6254C44.9225 60.5929 45.0035 60.54 45.0693 60.4709C45.1351 60.4018 45.184 60.3184 45.212 60.2272L45.8294 58.4488L45.3756 60.8529C45.3422 61.0315 45.3613 61.2159 45.4306 61.3838C45.4999 61.5517 45.6165 61.696 45.7661 61.7992L47.1151 62.5174L47.6368 59.1269L48.1569 62.5174L49.5074 61.7992C49.6571 61.696 49.7736 61.5517 49.8429 61.3838C49.9122 61.2159 49.9313 61.0315 49.8979 60.8529L49.4611 58.4488L50.0785 60.2272C50.1066 60.3184 50.1554 60.4018 50.2212 60.4709C50.2871 60.54 50.368 60.5929 50.4578 60.6254C50.5475 60.658 50.6436 60.6693 50.7385 60.6585C50.8334 60.6477 50.9245 60.6151 51.0046 60.5632L51.7763 60.0593L51.1203 57.9479L51.6544 59.0652C51.6921 59.1539 51.7501 59.2324 51.8238 59.2946C51.8974 59.3568 51.9846 59.4009 52.0784 59.4234C52.1722 59.4458 52.2699 59.4461 52.3638 59.424C52.4577 59.402 52.5451 59.3583 52.619 59.2964L53.3321 58.7092L52.176 56.0662L53.0465 57.5102C53.0927 57.5946 53.158 57.6671 53.2373 57.7218C53.3165 57.7765 53.4074 57.8119 53.5028 57.8253C53.5982 57.8386 53.6954 57.8295 53.7866 57.7986C53.8778 57.7677 53.9606 57.7159 54.0282 57.6474L54.6811 56.9955L53.1145 54.1814L54.4418 55.9999C54.4953 56.0801 54.5669 56.1466 54.6507 56.1941C54.7346 56.2417 54.8285 56.269 54.9248 56.2738C55.0212 56.2785 55.1173 56.2607 55.2055 56.2217C55.2937 56.1828 55.3715 56.1237 55.4327 56.0492L56.0254 55.3434C56.0254 55.3434 54.3708 53.3076 52.1282 46.5066V46.4896C54.1347 47.553 57.3497 46.4095 57.3497 46.4095C56.8352 46.3216 56.3419 46.1375 55.8957 45.867C56.5021 45.9567 57.1162 45.9815 57.7278 45.941C60.043 45.736 63.1391 43.8898 63.1391 43.8898C62.0397 43.8686 60.9664 43.5518 60.0322 42.9728C63.0635 43.301 64.5297 43.0098 64.5297 43.0098C68.1692 42.3933 72.5556 38.6792 72.5556 38.6792C69.6679 39.1955 66.5702 38.4141 66.5702 38.4141C76.121 38.6376 81.4536 31.6332 81.4536 31.6332C76.3788 33.78 70.2714 32.3113 70.2714 32.3113C73.7811 32.4854 78.7171 31.6316 82.6667 29.4756C86.6164 27.3196 90.8254 20.702 90.8254 20.702C83.3567 24.2943 76.8572 23.738 76.8572 23.738Z" fill="#EAEAEA"/>
<path d="M83.3057 33.0202C83.1807 33.1851 81.5462 35.2887 78.5396 37.2567C78.4655 54.1737 64.6609 67.9113 47.7031 67.9113C30.7454 67.9113 16.9393 54.1722 16.8652 37.2567C13.8586 35.2887 12.2256 33.1851 12.099 33.0202L10.9492 31.5068C10.6679 33.3645 10.5271 35.2408 10.5278 37.1196C10.5911 46.9227 14.5356 56.3027 21.5003 63.2124C28.465 70.122 37.8844 74 47.7024 74C57.5204 74 66.9398 70.122 73.9045 63.2124C80.8692 56.3027 84.8137 46.9227 84.8769 37.1196C84.8774 35.2408 84.7371 33.3647 84.4571 31.5068L83.3057 33.0202Z" fill="#EAEAEA"/>
<path d="M19.0553 15.0337C21.3535 15.6239 23.4001 16.04 24.9899 16.3236C27.8739 13.1734 31.3835 10.6576 35.2949 8.9363C39.2064 7.21502 43.434 6.32607 47.7085 6.32607C51.983 6.32607 56.2107 7.21502 60.1221 8.9363C64.0336 10.6576 67.5432 13.1734 70.4272 16.3236C72.017 16.04 74.0636 15.6239 76.3618 15.0337C76.6936 14.9474 77.0362 14.8565 77.3866 14.7609C76.3451 13.3888 75.2106 12.0897 73.991 10.8726C70.5393 7.42563 66.4414 4.69127 61.9313 2.82573C57.4212 0.960187 52.5872 0 47.7055 0C42.8237 0 37.9897 0.960187 33.4796 2.82573C28.9695 4.69127 24.8716 7.42563 21.4199 10.8726C20.2003 12.0897 19.0658 13.3888 18.0243 14.7609C18.3747 14.8565 18.7173 14.9474 19.0553 15.0337Z" fill="#EAEAEA"/>
</svg>
