<svg width="380" height="380" viewBox="0 0 380 380" fill="none" xmlns="http://www.w3.org/2000/svg">
<g id="ToolsIcon">
<g id="Blur" filter="url(#filter0_f_2797_91354)">
<circle cx="190" cy="190" r="100" fill="#EAEAEA"/>
</g>
<circle id="GrayOutline" cx="190" cy="190" r="100" fill="#7E7E7E"/>
<circle id="ToolsBG" cx="190.001" cy="190" r="85" fill="#151515"/>
<g id="IconScrew+wrench">
<path id="wrench" d="M159.765 166.197L159.642 166.07L159.482 166.144C154.461 168.465 148.329 167.565 144.205 163.441C140.481 159.718 139.386 154.357 140.917 149.656L150.133 158.872C151.177 159.916 152.869 159.916 153.913 158.872L158.872 153.913C159.916 152.869 159.916 151.177 158.872 150.133L149.656 140.917C154.357 139.386 159.718 140.481 163.441 144.205C167.565 148.328 168.465 154.46 166.144 159.481L166.07 159.641L166.197 159.763L218.239 209.87L218.354 209.982L218.503 209.921C224.094 207.659 230.723 208.784 235.239 213.301C239.123 217.184 240.499 222.629 239.371 227.632L228.958 217.219C227.915 216.176 226.222 216.176 225.179 217.219L217.219 225.179C216.175 226.223 216.175 227.915 217.219 228.959L227.632 239.371C222.628 240.499 217.184 239.122 213.301 235.239C208.784 230.723 207.659 224.093 209.922 218.503L209.982 218.354L209.87 218.238L159.765 166.197Z" fill="#EAEAEA" stroke="black" stroke-width="0.495702"/>
<g id="screw">
<path d="M172.785 196.642L175.638 193.825L186.209 204.395L183.376 207.233L172.785 196.642Z" fill="#EAEAEA"/>
<path d="M182.444 194.013L224.477 151.994C225.52 153.675 226.222 154.476 227.956 155.429L185.986 197.556L182.444 194.013Z" fill="#EAEAEA"/>
<path d="M174.435 192.621C174.237 192.423 174.237 192.101 174.435 191.902L177.024 189.313C177.223 189.114 177.545 189.114 177.743 189.313L190.688 202.257C190.886 202.456 190.886 202.778 190.688 202.976L188.098 205.565C187.9 205.764 187.578 205.764 187.379 205.565L174.435 192.621Z" fill="#EAEAEA"/>
<path d="M225.807 154.193C223.711 152.097 223.711 148.699 225.807 146.603L232.409 140L240 147.591L233.398 154.193C231.301 156.289 227.903 156.289 225.807 154.193Z" fill="#EAEAEA"/>
<path d="M141.638 232.609C139.454 230.425 139.454 226.883 141.638 224.698L170.88 195.456C171.079 195.258 171.401 195.258 171.599 195.456L184.543 208.401C184.742 208.599 184.742 208.921 184.543 209.12L155.301 238.362C153.117 240.546 149.575 240.546 147.391 238.362L141.638 232.609Z" fill="#EAEAEA"/>
<path d="M144.207 227.616C143.81 227.219 143.81 226.575 144.207 226.178L169.236 201.149C169.633 200.752 170.277 200.752 170.674 201.149L173.284 203.759C173.682 204.156 173.682 204.8 173.284 205.197L148.256 230.226C147.858 230.623 147.214 230.623 146.817 230.226L144.207 227.616Z" fill="#EAEAEA"/>
<path d="M149.774 233.183C149.377 232.786 149.377 232.142 149.774 231.745L174.803 206.716C175.201 206.319 175.844 206.319 176.242 206.716L178.852 209.326C179.249 209.723 179.249 210.367 178.852 210.764L153.823 235.793C153.426 236.19 152.782 236.19 152.385 235.793L149.774 233.183Z" fill="#EAEAEA"/>
<path d="M172.785 196.642L175.638 193.825L186.209 204.395L183.376 207.233L172.785 196.642Z" stroke="black" stroke-width="0.495702"/>
<path d="M182.444 194.013L224.477 151.994C225.52 153.675 226.222 154.476 227.956 155.429L185.986 197.556L182.444 194.013Z" stroke="black" stroke-width="0.495702"/>
<path d="M174.435 192.621C174.237 192.423 174.237 192.101 174.435 191.902L177.024 189.313C177.223 189.114 177.545 189.114 177.743 189.313L190.688 202.257C190.886 202.456 190.886 202.778 190.688 202.976L188.098 205.565C187.9 205.764 187.578 205.764 187.379 205.565L174.435 192.621Z" stroke="black" stroke-width="0.495702"/>
<path d="M225.807 154.193C223.711 152.097 223.711 148.699 225.807 146.603L232.409 140L240 147.591L233.398 154.193C231.301 156.289 227.903 156.289 225.807 154.193Z" stroke="black" stroke-width="0.495702"/>
<path d="M141.638 232.609C139.454 230.425 139.454 226.883 141.638 224.698L170.88 195.456C171.079 195.258 171.401 195.258 171.599 195.456L184.543 208.401C184.742 208.599 184.742 208.921 184.543 209.12L155.301 238.362C153.117 240.546 149.575 240.546 147.391 238.362L141.638 232.609Z" stroke="black" stroke-width="0.495702"/>
<path d="M144.207 227.616C143.81 227.219 143.81 226.575 144.207 226.178L169.236 201.149C169.633 200.752 170.277 200.752 170.674 201.149L173.284 203.759C173.682 204.156 173.682 204.8 173.284 205.197L148.256 230.226C147.858 230.623 147.214 230.623 146.817 230.226L144.207 227.616Z" stroke="black" stroke-width="0.495702"/>
<path d="M149.774 233.183C149.377 232.786 149.377 232.142 149.774 231.745L174.803 206.716C175.201 206.319 175.844 206.319 176.242 206.716L178.852 209.326C179.249 209.723 179.249 210.367 178.852 210.764L153.823 235.793C153.426 236.19 152.782 236.19 152.385 235.793L149.774 233.183Z" stroke="black" stroke-width="0.495702"/>
</g>
</g>
</g>
<defs>
<filter id="filter0_f_2797_91354" x="0" y="0" width="380" height="380" filterUnits="userSpaceOnUse" color-interpolation-filters="sRGB">
<feFlood flood-opacity="0" result="BackgroundImageFix"/>
<feBlend mode="normal" in="SourceGraphic" in2="BackgroundImageFix" result="shape"/>
<feGaussianBlur stdDeviation="45" result="effect1_foregroundBlur_2797_91354"/>
</filter>
</defs>
</svg>
